<svg id="Capa_1" enable-background="new 0 0 512.008 512.008" height="512" viewBox="0 0 512.008 512.008" width="512" xmlns="http://www.w3.org/2000/svg"><g><path d="m120.322 444.359c16.946 0 30.732-13.786 30.732-30.732s-13.786-30.732-30.732-30.732c-16.945 0-30.731 13.786-30.731 30.732s13.786 30.732 30.731 30.732zm0-46.465c8.675 0 15.732 7.058 15.732 15.732s-7.058 15.732-15.732 15.732-15.731-7.058-15.731-15.732 7.057-15.732 15.731-15.732z"/><path d="m131.283 164.711 3.126-5.117c2.159-3.535 1.044-8.151-2.49-10.311-3.534-2.157-8.15-1.043-10.311 2.49l-3.126 5.117c-2.159 3.535-1.044 8.151 2.49 10.311 3.55 2.167 8.159 1.032 10.311-2.49z"/><path d="m103.748 215.788 2.254-5.557c1.557-3.839-.293-8.213-4.131-9.77-3.84-1.555-8.213.293-9.77 4.131l-2.254 5.557c-1.557 3.839.293 8.213 4.131 9.77 3.832 1.551 8.209-.283 9.77-4.131z"/><path d="m496.243 309.812c-4.257-13.991-18.615-22.055-32.519-18.914l-17.484-57.48c-2.091-6.87-7.971-11.641-14.885-12.481l-8.911-30.71c-1.155-3.979-5.324-6.267-9.293-5.113-3.979 1.154-6.268 5.315-5.113 9.293l8.541 29.434-19.316 5.876-20.74-67.058c-16.6-53.675-78.989-75.624-125.012-47.033-11.214-11.473-41.711-42.674-52.845-54.066 45.229-31.716 89.08-35.401 130.445-10.925 28.97 17.14 50.24 44.9 59.892 78.166l9.28 31.983c1.154 3.979 5.319 6.265 9.293 5.113 3.979-1.154 6.268-5.315 5.113-9.293l-9.28-31.983c-10.72-36.945-34.393-67.806-66.659-86.896-33.063-19.561-85.554-32.712-149.5 13.565-8.273-4.549-18.76-3.609-26.135 3.011-27.246 24.454-50.333 50.964-69.176 79.368-25.933-10.997-54.673 8.147-54.673 36.212 0 13.633 7.197 26.243 18.494 33.347-5.823 14.942-10.652 30.291-14.488 46.027l-21.539-3.602c-7.812-1.307-15.231 3.99-16.539 11.801l-2.993 17.901c-1.311 7.835 3.966 15.23 11.799 16.542l20.996 3.511c-4.828 41.314-3.16 84.255 5.032 128.192 4.624 24.803 19.96 45.981 42.073 58.104 64.514 35.364 140.807-24.243 120.681-96.364-8.143-29.18-11.081-58.482-8.734-87.093.339-4.128-2.733-7.749-6.861-8.088-4.128-.341-7.749 2.733-8.088 6.861-2.493 30.385.614 61.456 9.236 92.351 16.555 59.329-46.115 108.184-99.022 79.18-18.153-9.951-30.742-27.337-34.538-47.7-26.995-144.776 19.34-266.517 118.358-355.387 3.099-2.781 7.823-2.607 10.759.395l63.264 64.726c2.875 2.941 2.982 7.623.243 10.658-17.562 19.465-49.056 60.898-62.667 119.699-.935 4.035 1.58 8.064 5.615 8.998 4.038.938 8.063-1.58 8.998-5.615 12.851-55.51 42.601-94.646 59.19-113.033 5.964-6.609 7.331-15.864 4.205-23.71 37.852-22.369 88.011-3.949 101.452 39.51l21.273 68.784c-4.749 4.494-6.857 11.438-4.829 18.107l7.853 25.817c-1.497.094-2.993.342-4.463.789l-28.558 8.687c-10.286 3.13-16.11 14.044-12.982 24.332l7.293 23.975-14.119 4.295c-8.167 2.487-17.151 1.973-25.298-1.447-9.852-4.134-20.941-1.819-28.257 5.896-33.813 35.66-18.044 87.365 29.854 98.147 10.467 2.355 20.928-2.003 26.754-10.838 4.862-7.375 12.039-12.805 20.207-15.289l14.118-4.295 8.284 27.233c3.126 10.274 14.029 16.112 24.331 12.982l28.558-8.688c10.287-3.129 16.111-14.045 12.982-24.331l-4.09-13.447 51.305-15.606c14.575-4.435 22.833-19.915 18.401-34.489zm-443.978-139.931c0-16.309 15.824-28.056 31.462-23.284-8.46 13.964-15.99 28.573-22.092 42.458-5.786-4.546-9.37-11.606-9.37-19.174zm-37.166 107.326 2.784-16.653 20.119 3.364c-1.113 5.508-2.107 11.049-2.978 16.621zm434.25 17.977-38.9 11.832c-3.159-10.386-16.275-53.501-17.46-57.399-.435-1.429.343-2.935 1.734-3.433 0 0 .007-.001.01-.002 1.579-.543-4.951 1.491 33.671-10.257 1.478-.447 3.036.381 3.485 1.859zm-82.675 104.514-14.118 4.295c-11.508 3.501-21.581 11.095-28.365 21.383-1.834 2.781-5.793 5.621-10.938 4.461-36.555-8.227-48.04-46.006-22.263-73.192 3.197-3.371 7.851-3.945 11.568-2.384 11.364 4.769 23.96 5.467 35.467 1.967l14.119-4.295c1.688 5.545 13.374 43.965 14.53 47.765zm61.175 31.528-28.559 8.688c-2.34.707-4.907-.662-5.615-2.996-4.308-14.163-33.625-110.541-38.837-127.676-.71-2.335.662-4.906 2.996-5.616l28.558-8.687c2.324-.711 4.899.655 5.612 2.988 4.525 14.877 34.524 113.5 38.839 127.685.716 2.351-.639 4.898-2.994 5.614zm60.195-53.385-51.305 15.606c-2.924-9.614-19.001-62.466-21.925-72.08 9.96-3.029 41.346-12.576 51.305-15.605 6.628-2.018 13.75 1.761 15.772 8.415l14.567 47.892c2.019 6.629-1.76 13.749-8.414 15.772z"/></g></svg>